<mxfile host="app.diagrams.net" modified="2021-10-22T20:26:05.395Z" agent="5.0 (Windows)" etag="rOtNRNUeYAiRzVy9_UfZ" version="15.5.8" type="github">
  <diagram id="lk9VjDNaJXKOXbqT-E2D" name="Page-1">
    <mxGraphModel dx="1422" dy="752" grid="1" gridSize="10" guides="1" tooltips="1" connect="1" arrows="1" fold="1" page="1" pageScale="1" pageWidth="827" pageHeight="1169" math="0" shadow="0">
      <root>
        <mxCell id="0" />
        <mxCell id="1" parent="0" />
        <mxCell id="10STkQEoguKuW-rB0M1o-5" value="" style="edgeStyle=orthogonalEdgeStyle;rounded=0;orthogonalLoop=1;jettySize=auto;html=1;" edge="1" parent="1" source="10STkQEoguKuW-rB0M1o-1" target="10STkQEoguKuW-rB0M1o-4">
          <mxGeometry relative="1" as="geometry" />
        </mxCell>
        <mxCell id="10STkQEoguKuW-rB0M1o-7" value="" style="edgeStyle=orthogonalEdgeStyle;rounded=0;orthogonalLoop=1;jettySize=auto;html=1;" edge="1" parent="1" source="10STkQEoguKuW-rB0M1o-1" target="10STkQEoguKuW-rB0M1o-6">
          <mxGeometry relative="1" as="geometry" />
        </mxCell>
        <mxCell id="10STkQEoguKuW-rB0M1o-1" value="&lt;div&gt;Intro&lt;/div&gt;" style="rounded=0;whiteSpace=wrap;html=1;" vertex="1" parent="1">
          <mxGeometry x="384" y="30" width="60" height="30" as="geometry" />
        </mxCell>
        <mxCell id="10STkQEoguKuW-rB0M1o-9" value="" style="edgeStyle=orthogonalEdgeStyle;rounded=0;orthogonalLoop=1;jettySize=auto;html=1;" edge="1" parent="1" source="10STkQEoguKuW-rB0M1o-4" target="10STkQEoguKuW-rB0M1o-8">
          <mxGeometry relative="1" as="geometry" />
        </mxCell>
        <mxCell id="10STkQEoguKuW-rB0M1o-11" value="" style="edgeStyle=orthogonalEdgeStyle;rounded=0;orthogonalLoop=1;jettySize=auto;html=1;" edge="1" parent="1" source="10STkQEoguKuW-rB0M1o-4" target="10STkQEoguKuW-rB0M1o-10">
          <mxGeometry relative="1" as="geometry" />
        </mxCell>
        <mxCell id="10STkQEoguKuW-rB0M1o-4" value="&lt;div&gt;Christina&#39;s&lt;/div&gt;&lt;div&gt;problem&lt;br&gt;&lt;/div&gt;" style="rounded=0;whiteSpace=wrap;html=1;" vertex="1" parent="1">
          <mxGeometry x="320" y="250" width="70" height="50" as="geometry" />
        </mxCell>
        <mxCell id="10STkQEoguKuW-rB0M1o-13" value="" style="edgeStyle=orthogonalEdgeStyle;rounded=0;orthogonalLoop=1;jettySize=auto;html=1;" edge="1" parent="1" source="10STkQEoguKuW-rB0M1o-6" target="10STkQEoguKuW-rB0M1o-12">
          <mxGeometry relative="1" as="geometry" />
        </mxCell>
        <mxCell id="10STkQEoguKuW-rB0M1o-15" value="" style="edgeStyle=orthogonalEdgeStyle;rounded=0;orthogonalLoop=1;jettySize=auto;html=1;" edge="1" parent="1" source="10STkQEoguKuW-rB0M1o-6" target="10STkQEoguKuW-rB0M1o-14">
          <mxGeometry relative="1" as="geometry" />
        </mxCell>
        <mxCell id="10STkQEoguKuW-rB0M1o-6" value="&lt;div&gt;Clementine&#39;s&lt;/div&gt;&lt;div&gt;problem&lt;br&gt;&lt;/div&gt;" style="rounded=0;whiteSpace=wrap;html=1;" vertex="1" parent="1">
          <mxGeometry x="440" y="250" width="80" height="50" as="geometry" />
        </mxCell>
        <mxCell id="10STkQEoguKuW-rB0M1o-8" value="Christina perfect ending" style="whiteSpace=wrap;html=1;rounded=0;" vertex="1" parent="1">
          <mxGeometry x="160" y="360" width="120" height="60" as="geometry" />
        </mxCell>
        <mxCell id="10STkQEoguKuW-rB0M1o-10" value="Christina friendly ending" style="whiteSpace=wrap;html=1;rounded=0;" vertex="1" parent="1">
          <mxGeometry x="302.5" y="360" width="105" height="40" as="geometry" />
        </mxCell>
        <mxCell id="10STkQEoguKuW-rB0M1o-12" value="&lt;div&gt;Clementine &lt;br&gt;&lt;/div&gt;&lt;div&gt;friendly ending&lt;/div&gt;" style="whiteSpace=wrap;html=1;rounded=0;" vertex="1" parent="1">
          <mxGeometry x="420" y="360" width="120" height="60" as="geometry" />
        </mxCell>
        <mxCell id="10STkQEoguKuW-rB0M1o-14" value="&lt;div&gt;Clementine &lt;br&gt;&lt;/div&gt;&lt;div&gt;perfect ending&lt;/div&gt;" style="whiteSpace=wrap;html=1;rounded=0;" vertex="1" parent="1">
          <mxGeometry x="580" y="360" width="120" height="60" as="geometry" />
        </mxCell>
      </root>
    </mxGraphModel>
  </diagram>
</mxfile>
